<svg xmlns="http://www.w3.org/2000/svg"  xmlns:xlink="http://www.w3.org/1999/xlink"  class="w-6 h-6 stroke-current text-white-500 " viewBox="0 0 24 24"><style>.st1{fill:none;stroke:#adadad;stroke-linecap:round;stroke-linejoin:round;stroke-miterlimit:10}</style><path d="m11.6 3.4 8.6 9.1c.7.7.4 1.9-.5 2.3L5.7 21c-.6.3-1.2.1-1.7-.4l-1.4-1.5c-.4-.4-.5-1.1-.2-1.6L9.2 3.8c.4-.9 1.7-1.1 2.4-.4z" style="fill: none; stroke: rgb(173, 173, 173); stroke-miterlimit: 10;"></path><path class="st1" d="m15.6 3.7.6-1.9M19.7 7.8h2M18 5.4 20.4 3M7.5 20.4c.6 1.2 1.8 2 3.2 2 2 0 3.6-1.6 3.6-3.6 0-.4-.1-.9-.2-1.3"></path></svg>