<svg xmlns:xlink="http://www.w3.org/1999/xlink"  class="w-6 h-6 stroke-current text-white-500 " viewBox="0 0 24 24" fill="none" stroke="#8B8C8C" xmlns="http://www.w3.org/2000/svg"><path d="M4 23c1-.837 2.37-1.052 3.383-2.133.442-.348.852-.644 1.107-1.108.216-.391 1.892-4.535.064-2.66-.82 1.183-.477-.983.254-1.397-.587-.276-1.847.72-2.058 1.266.124-.679.038-1.614-.021-2.294-.336-1.322 1.846-1.57.235-1.58-.542.064-.882.665-.885.727-.06-.65.405-1.524 1.015-1.893-.376-.344-1.357-.175-1.62.36-.086-.533.45-1.5 1.114-1.72.25.009.564-.623.666-.815-.052-.536-.32-1.061-.737-1.576-.386-.45-.404-1.638-.75-2.394-.346-.92-.673-2.342.244-3 1.59-.323 2.923 1.413 4.152 2.251.357-.167.938-.373 1.326-.443a8.874 8.874 0 0 1 3.193-.131c1.127-.608 2.98-3.472 4.038-2.086.625.531-.238 1.917-.494 2.61-.066.3-.052.595-.083.723-.072.286-.252.41-.212.564.747.478.775 1.143 1.137 1.852.249.511.444.986.58 1.419.114.373.082.678 0 .924.163.42.405 1.157.406 1.538.718.737 1.079.79.902 1.588-.17.933.105 1.585-.982 2.18-.195.314.61.269-.064 1.214.057.974-.39 1.091-1.684 1.339-.857.26-1.546-.22-2.234-.758-.323-.226-.596-.485-.9-.714l.102 2.527c.018.458.197.896.511 1.23 1.339 1.429 2.688.743 4.349 2.39" stroke-miterlimit="10" stroke-linecap="round" stroke-linejoin="round"></path></svg>