<svg xmlns:xlink="http://www.w3.org/1999/xlink"  class="w-6 h-6 stroke-current text-white-500 " data-name="a239fe10-42dc-4f9c-ab1f-bcabd992189e" xmlns="http://www.w3.org/2000/svg" viewBox="0 0 15.16 19.14"><path d="M7 9.17a4.42 4.42 0 0 0 4.5-4.33A4.42 4.42 0 0 0 7 .5h0a4.43 4.43 0 0 0-4.5 4.34A4.42 4.42 0 0 0 7 9.17Z" fill="none" stroke="#969797" stroke-linecap="round" stroke-linejoin="round"></path><path d="M10.23 13.3a1.93 1.93 0 0 1 1.49 0 2 2 0 0 1 .63.43.3.3 0 0 1 0 .41.27.27 0 0 1-.4 0 1.37 1.37 0 0 0-.45-.3 1.31 1.31 0 0 0-.52-.11 1.42 1.42 0 0 0-1 .41l-1.85 1.91a1.4 1.4 0 0 0 0 2 1.36 1.36 0 0 0 1 .41 1.35 1.35 0 0 0 1-.41l.24-.24a.28.28 0 0 1 .4 0 .3.3 0 0 1 0 .41l-.24.24a1.93 1.93 0 0 1-2.74 0 2 2 0 0 1 0-2.8l1.81-1.93a2.08 2.08 0 0 1 .63-.43Z" fill="#969797" stroke="#969797" stroke-miterlimit="10" stroke-width=".25" fill-rule="evenodd"></path><path d="M.5 18.55v-2a4.15 4.15 0 0 1 1.08-2.83 3.51 3.51 0 0 1 2.59-1.17H7.5" fill="none" stroke="#969797" stroke-linecap="round" stroke-linejoin="round"></path><path d="M11.76 11.73a1.88 1.88 0 0 1 2.72 0 2 2 0 0 1 0 2.79l-1.86 1.91a2.06 2.06 0 0 1-.62.44 1.9 1.9 0 0 1-1.48 0 2.06 2.06 0 0 1-.62-.44.28.28 0 0 1 0-.4.28.28 0 0 1 .4 0 1.25 1.25 0 0 0 .44.31 1.28 1.28 0 0 0 1 0 1.25 1.25 0 0 0 .44-.31l1.86-1.91a1.44 1.44 0 0 0 0-2 1.34 1.34 0 0 0-1-.41 1.38 1.38 0 0 0-1 .41l-.23.24a.27.27 0 0 1-.39 0 .28.28 0 0 1 0-.4Z" fill="#969797" stroke="#969797" stroke-miterlimit="10" stroke-width=".25" fill-rule="evenodd"></path></svg>