<svg xmlns:xlink="http://www.w3.org/1999/xlink"  class="w-6 h-6 stroke-current text-white-500 " width="24" height="24" fill="none" xmlns="http://www.w3.org/2000/svg"><path d="M22 11.78C22 6.405 17.566 2 11.955 2S2 6.317 2 11.78a9.449 9.449 0 0 0 2.896 6.872C4.806 19.797 4.715 22 4.715 22s2.443-.97 3.258-1.322c1.267.53 2.534.793 3.982.793 5.61 0 10.045-4.317 10.045-9.691Z" stroke="#969797" stroke-miterlimit="10" stroke-linecap="round" stroke-linejoin="round"></path><path d="M12 14.4c3.314 0 6-1.075 6-2.4s-2.686-2.4-6-2.4-6 1.075-6 2.4 2.686 2.4 6 2.4Z" stroke="#969797" stroke-linecap="round" stroke-linejoin="round"></path><path d="M15.275 11.962c0 3.314-1.325 5.962-3.275 6.038-2.025-.076-3.35-2.724-3.35-6.038S9.975 6 12 6c2.025 0 3.275 2.648 3.275 5.962Z" stroke="#969797" stroke-linecap="round" stroke-linejoin="round"></path><path d="M11.962 6v11.924" stroke="#969797"></path><path d="M12 18a6 6 0 1 0 0-12 6 6 0 0 0 0 12Z" stroke="#969797" stroke-linejoin="round"></path></svg>