<svg xmlns:xlink="http://www.w3.org/1999/xlink"  class="absolute top-2 right-2 sm:top-1 sm:right-1 " width="20" height="20" fill="none" xmlns="http://www.w3.org/2000/svg"><path fill-rule="evenodd" clip-rule="evenodd" d="M14.52 5.48a.5.5 0 0 1 0 .707L6.187 14.52a.5.5 0 0 1-.707-.707l8.333-8.333a.5.5 0 0 1 .707 0Z" fill="#fff"></path><path fill-rule="evenodd" clip-rule="evenodd" d="M6.167 5.833a.5.5 0 0 1 .5-.5h7.5a.5.5 0 0 1 .5.5v7.5a.5.5 0 1 1-1 0v-7h-7a.5.5 0 0 1-.5-.5Z" fill="#fff"></path></svg>