<svg xmlns:xlink="http://www.w3.org/1999/xlink"  class="w-6 h-6" viewBox="0 0 24 24" fill="none" stroke="#8B8C8C" stroke-linecap="round" stroke-linejoin="round" xmlns="http://www.w3.org/2000/svg"><path d="M16.494 14.195c1.236.207 2.597-.01 3.553-.648 1.27-.846 1.27-2.232 0-3.078-.965-.639-2.345-.855-3.58-.639m-8.961 4.365c-1.236.207-2.597-.01-3.553-.648-1.27-.846-1.27-2.232 0-3.078.965-.639 2.345-.855 3.58-.639m9.89-2.187a2.322 2.322 0 0 1-1.76-.71 2.313 2.313 0 0 1-.647-1.611A2.318 2.318 0 0 1 17.342 3a2.328 2.328 0 0 1 2.326 2.322 2.327 2.327 0 0 1-2.245 2.321Zm-10.846 0a.547.547 0 0 1 .171 0A2.322 2.322 0 0 0 6.658 3c-.617 0-1.208.245-1.645.68a2.32 2.32 0 0 0-.68 1.642c.008 1.26 1 2.276 2.244 2.321Zm5.437 6.723a.547.547 0 0 0-.172 0 2.313 2.313 0 0 1-2.236-2.322 2.318 2.318 0 0 1 2.326-2.322c.617 0 1.209.245 1.645.68a2.32 2.32 0 0 1 .681 1.642c-.009 1.26-1 2.286-2.244 2.322ZM9.39 17.2c-1.271.846-1.271 2.232 0 3.078 1.442.963 3.805.963 5.247 0 1.271-.846 1.271-2.232 0-3.078-1.433-.954-3.805-.954-5.247 0Z"></path></svg>